<?xml version="1.0" encoding="utf-8" standalone="no"?>
<!DOCTYPE svg PUBLIC "-//W3C//DTD SVG 1.1//EN"
  "http://www.w3.org/Graphics/SVG/1.1/DTD/svg11.dtd">
<svg xmlns:xlink="http://www.w3.org/1999/xlink" width="627.999375pt" height="617.642756pt" viewBox="0 0 627.999375 617.642756" xmlns="http://www.w3.org/2000/svg" version="1.1">
 <metadata>
  <rdf:RDF xmlns:dc="http://purl.org/dc/elements/1.1/" xmlns:cc="http://creativecommons.org/ns#" xmlns:rdf="http://www.w3.org/1999/02/22-rdf-syntax-ns#">
   <cc:Work>
    <dc:type rdf:resource="http://purl.org/dc/dcmitype/StillImage"/>
    <dc:date>2023-05-06T18:13:35.424886</dc:date>
    <dc:format>image/svg+xml</dc:format>
    <dc:creator>
     <cc:Agent>
      <dc:title>Matplotlib v3.7.1, https://matplotlib.org/</dc:title>
     </cc:Agent>
    </dc:creator>
   </cc:Work>
  </rdf:RDF>
 </metadata>
 <defs>
  <style type="text/css">*{stroke-linejoin: round; stroke-linecap: butt}</style>
 </defs>
 <g id="figure_1">
  <g id="patch_1">
   <path d="M 0 617.642756 
L 627.999375 617.642756 
L 627.999375 0 
L 0 0 
z
" style="fill: #ffffff"/>
  </g>
  <g id="axes_1">
   <g id="patch_2">
    <path d="M 36.17625 494.961038 
L 594.17625 494.961038 
L 594.17625 51.441037 
L 36.17625 51.441037 
z
" style="fill: #e5e5e5"/>
   </g>
   <g id="matplotlib.axis_1">
    <g id="xtick_1">
     <g id="line2d_1">
      <path d="M 64.07625 494.961038 
L 64.07625 51.441037 
" clip-path="url(#pe9a218d46b)" style="fill: none; stroke: #ffffff; stroke-width: 0.8; stroke-linecap: square"/>
     </g>
     <g id="line2d_2">
      <defs>
       <path id="m01d64baefa" d="M 0 0 
L 0 3.5 
" style="stroke: #555555; stroke-width: 0.8"/>
      </defs>
      <g>
       <use xlink:href="#m01d64baefa" x="64.07625" y="494.961038" style="fill: #555555; stroke: #555555; stroke-width: 0.8"/>
      </g>
     </g>
     <g id="text_1">
      <!-- Lisboa -->
      <g style="fill: #555555" transform="translate(66.007812 524.469319) rotate(-90) scale(0.07 -0.07)">
       <defs>
        <path id="DejaVuSans-4c" d="M 628 4666 
L 1259 4666 
L 1259 531 
L 3531 531 
L 3531 0 
L 628 0 
L 628 4666 
z
" transform="scale(0.015625)"/>
        <path id="DejaVuSans-69" d="M 603 3500 
L 1178 3500 
L 1178 0 
L 603 0 
L 603 3500 
z
M 603 4863 
L 1178 4863 
L 1178 4134 
L 603 4134 
L 603 4863 
z
" transform="scale(0.015625)"/>
        <path id="DejaVuSans-73" d="M 2834 3397 
L 2834 2853 
Q 2591 2978 2328 3040 
Q 2066 3103 1784 3103 
Q 1356 3103 1142 2972 
Q 928 2841 928 2578 
Q 928 2378 1081 2264 
Q 1234 2150 1697 2047 
L 1894 2003 
Q 2506 1872 2764 1633 
Q 3022 1394 3022 966 
Q 3022 478 2636 193 
Q 2250 -91 1575 -91 
Q 1294 -91 989 -36 
Q 684 19 347 128 
L 347 722 
Q 666 556 975 473 
Q 1284 391 1588 391 
Q 1994 391 2212 530 
Q 2431 669 2431 922 
Q 2431 1156 2273 1281 
Q 2116 1406 1581 1522 
L 1381 1569 
Q 847 1681 609 1914 
Q 372 2147 372 2553 
Q 372 3047 722 3315 
Q 1072 3584 1716 3584 
Q 2034 3584 2315 3537 
Q 2597 3491 2834 3397 
z
" transform="scale(0.015625)"/>
        <path id="DejaVuSans-62" d="M 3116 1747 
Q 3116 2381 2855 2742 
Q 2594 3103 2138 3103 
Q 1681 3103 1420 2742 
Q 1159 2381 1159 1747 
Q 1159 1113 1420 752 
Q 1681 391 2138 391 
Q 2594 391 2855 752 
Q 3116 1113 3116 1747 
z
M 1159 2969 
Q 1341 3281 1617 3432 
Q 1894 3584 2278 3584 
Q 2916 3584 3314 3078 
Q 3713 2572 3713 1747 
Q 3713 922 3314 415 
Q 2916 -91 2278 -91 
Q 1894 -91 1617 61 
Q 1341 213 1159 525 
L 1159 0 
L 581 0 
L 581 4863 
L 1159 4863 
L 1159 2969 
z
" transform="scale(0.015625)"/>
        <path id="DejaVuSans-6f" d="M 1959 3097 
Q 1497 3097 1228 2736 
Q 959 2375 959 1747 
Q 959 1119 1226 758 
Q 1494 397 1959 397 
Q 2419 397 2687 759 
Q 2956 1122 2956 1747 
Q 2956 2369 2687 2733 
Q 2419 3097 1959 3097 
z
M 1959 3584 
Q 2709 3584 3137 3096 
Q 3566 2609 3566 1747 
Q 3566 888 3137 398 
Q 2709 -91 1959 -91 
Q 1206 -91 779 398 
Q 353 888 353 1747 
Q 353 2609 779 3096 
Q 1206 3584 1959 3584 
z
" transform="scale(0.015625)"/>
        <path id="DejaVuSans-61" d="M 2194 1759 
Q 1497 1759 1228 1600 
Q 959 1441 959 1056 
Q 959 750 1161 570 
Q 1363 391 1709 391 
Q 2188 391 2477 730 
Q 2766 1069 2766 1631 
L 2766 1759 
L 2194 1759 
z
M 3341 1997 
L 3341 0 
L 2766 0 
L 2766 531 
Q 2569 213 2275 61 
Q 1981 -91 1556 -91 
Q 1019 -91 701 211 
Q 384 513 384 1019 
Q 384 1609 779 1909 
Q 1175 2209 1959 2209 
L 2766 2209 
L 2766 2266 
Q 2766 2663 2505 2880 
Q 2244 3097 1772 3097 
Q 1472 3097 1187 3025 
Q 903 2953 641 2809 
L 641 3341 
Q 956 3463 1253 3523 
Q 1550 3584 1831 3584 
Q 2591 3584 2966 3190 
Q 3341 2797 3341 1997 
z
" transform="scale(0.015625)"/>
       </defs>
       <use xlink:href="#DejaVuSans-4c"/>
       <use xlink:href="#DejaVuSans-69" x="55.712891"/>
       <use xlink:href="#DejaVuSans-73" x="83.496094"/>
       <use xlink:href="#DejaVuSans-62" x="135.595703"/>
       <use xlink:href="#DejaVuSans-6f" x="199.072266"/>
       <use xlink:href="#DejaVuSans-61" x="260.253906"/>
      </g>
     </g>
    </g>
    <g id="xtick_2">
     <g id="line2d_3">
      <path d="M 119.87625 494.961038 
L 119.87625 51.441037 
" clip-path="url(#pe9a218d46b)" style="fill: none; stroke: #ffffff; stroke-width: 0.8; stroke-linecap: square"/>
     </g>
     <g id="line2d_4">
      <g>
       <use xlink:href="#m01d64baefa" x="119.87625" y="494.961038" style="fill: #555555; stroke: #555555; stroke-width: 0.8"/>
      </g>
     </g>
     <g id="text_2">
      <!-- Albufeira -->
      <g style="fill: #555555" transform="translate(121.807812 533.457756) rotate(-90) scale(0.07 -0.07)">
       <defs>
        <path id="DejaVuSans-41" d="M 2188 4044 
L 1331 1722 
L 3047 1722 
L 2188 4044 
z
M 1831 4666 
L 2547 4666 
L 4325 0 
L 3669 0 
L 3244 1197 
L 1141 1197 
L 716 0 
L 50 0 
L 1831 4666 
z
" transform="scale(0.015625)"/>
        <path id="DejaVuSans-6c" d="M 603 4863 
L 1178 4863 
L 1178 0 
L 603 0 
L 603 4863 
z
" transform="scale(0.015625)"/>
        <path id="DejaVuSans-75" d="M 544 1381 
L 544 3500 
L 1119 3500 
L 1119 1403 
Q 1119 906 1312 657 
Q 1506 409 1894 409 
Q 2359 409 2629 706 
Q 2900 1003 2900 1516 
L 2900 3500 
L 3475 3500 
L 3475 0 
L 2900 0 
L 2900 538 
Q 2691 219 2414 64 
Q 2138 -91 1772 -91 
Q 1169 -91 856 284 
Q 544 659 544 1381 
z
M 1991 3584 
L 1991 3584 
z
" transform="scale(0.015625)"/>
        <path id="DejaVuSans-66" d="M 2375 4863 
L 2375 4384 
L 1825 4384 
Q 1516 4384 1395 4259 
Q 1275 4134 1275 3809 
L 1275 3500 
L 2222 3500 
L 2222 3053 
L 1275 3053 
L 1275 0 
L 697 0 
L 697 3053 
L 147 3053 
L 147 3500 
L 697 3500 
L 697 3744 
Q 697 4328 969 4595 
Q 1241 4863 1831 4863 
L 2375 4863 
z
" transform="scale(0.015625)"/>
        <path id="DejaVuSans-65" d="M 3597 1894 
L 3597 1613 
L 953 1613 
Q 991 1019 1311 708 
Q 1631 397 2203 397 
Q 2534 397 2845 478 
Q 3156 559 3463 722 
L 3463 178 
Q 3153 47 2828 -22 
Q 2503 -91 2169 -91 
Q 1331 -91 842 396 
Q 353 884 353 1716 
Q 353 2575 817 3079 
Q 1281 3584 2069 3584 
Q 2775 3584 3186 3129 
Q 3597 2675 3597 1894 
z
M 3022 2063 
Q 3016 2534 2758 2815 
Q 2500 3097 2075 3097 
Q 1594 3097 1305 2825 
Q 1016 2553 972 2059 
L 3022 2063 
z
" transform="scale(0.015625)"/>
        <path id="DejaVuSans-72" d="M 2631 2963 
Q 2534 3019 2420 3045 
Q 2306 3072 2169 3072 
Q 1681 3072 1420 2755 
Q 1159 2438 1159 1844 
L 1159 0 
L 581 0 
L 581 3500 
L 1159 3500 
L 1159 2956 
Q 1341 3275 1631 3429 
Q 1922 3584 2338 3584 
Q 2397 3584 2469 3576 
Q 2541 3569 2628 3553 
L 2631 2963 
z
" transform="scale(0.015625)"/>
       </defs>
       <use xlink:href="#DejaVuSans-41"/>
       <use xlink:href="#DejaVuSans-6c" x="68.408203"/>
       <use xlink:href="#DejaVuSans-62" x="96.191406"/>
       <use xlink:href="#DejaVuSans-75" x="159.667969"/>
       <use xlink:href="#DejaVuSans-66" x="223.046875"/>
       <use xlink:href="#DejaVuSans-65" x="258.251953"/>
       <use xlink:href="#DejaVuSans-69" x="319.775391"/>
       <use xlink:href="#DejaVuSans-72" x="347.558594"/>
       <use xlink:href="#DejaVuSans-61" x="388.671875"/>
      </g>
     </g>
    </g>
    <g id="xtick_3">
     <g id="line2d_5">
      <path d="M 175.67625 494.961038 
L 175.67625 51.441037 
" clip-path="url(#pe9a218d46b)" style="fill: none; stroke: #ffffff; stroke-width: 0.8; stroke-linecap: square"/>
     </g>
     <g id="line2d_6">
      <g>
       <use xlink:href="#m01d64baefa" x="175.67625" y="494.961038" style="fill: #555555; stroke: #555555; stroke-width: 0.8"/>
      </g>
     </g>
     <g id="text_3">
      <!-- Funchal -->
      <g style="fill: #555555" transform="translate(177.607813 528.994163) rotate(-90) scale(0.07 -0.07)">
       <defs>
        <path id="DejaVuSans-46" d="M 628 4666 
L 3309 4666 
L 3309 4134 
L 1259 4134 
L 1259 2759 
L 3109 2759 
L 3109 2228 
L 1259 2228 
L 1259 0 
L 628 0 
L 628 4666 
z
" transform="scale(0.015625)"/>
        <path id="DejaVuSans-6e" d="M 3513 2113 
L 3513 0 
L 2938 0 
L 2938 2094 
Q 2938 2591 2744 2837 
Q 2550 3084 2163 3084 
Q 1697 3084 1428 2787 
Q 1159 2491 1159 1978 
L 1159 0 
L 581 0 
L 581 3500 
L 1159 3500 
L 1159 2956 
Q 1366 3272 1645 3428 
Q 1925 3584 2291 3584 
Q 2894 3584 3203 3211 
Q 3513 2838 3513 2113 
z
" transform="scale(0.015625)"/>
        <path id="DejaVuSans-63" d="M 3122 3366 
L 3122 2828 
Q 2878 2963 2633 3030 
Q 2388 3097 2138 3097 
Q 1578 3097 1268 2742 
Q 959 2388 959 1747 
Q 959 1106 1268 751 
Q 1578 397 2138 397 
Q 2388 397 2633 464 
Q 2878 531 3122 666 
L 3122 134 
Q 2881 22 2623 -34 
Q 2366 -91 2075 -91 
Q 1284 -91 818 406 
Q 353 903 353 1747 
Q 353 2603 823 3093 
Q 1294 3584 2113 3584 
Q 2378 3584 2631 3529 
Q 2884 3475 3122 3366 
z
" transform="scale(0.015625)"/>
        <path id="DejaVuSans-68" d="M 3513 2113 
L 3513 0 
L 2938 0 
L 2938 2094 
Q 2938 2591 2744 2837 
Q 2550 3084 2163 3084 
Q 1697 3084 1428 2787 
Q 1159 2491 1159 1978 
L 1159 0 
L 581 0 
L 581 4863 
L 1159 4863 
L 1159 2956 
Q 1366 3272 1645 3428 
Q 1925 3584 2291 3584 
Q 2894 3584 3203 3211 
Q 3513 2838 3513 2113 
z
" transform="scale(0.015625)"/>
       </defs>
       <use xlink:href="#DejaVuSans-46"/>
       <use xlink:href="#DejaVuSans-75" x="52.019531"/>
       <use xlink:href="#DejaVuSans-6e" x="115.398438"/>
       <use xlink:href="#DejaVuSans-63" x="178.777344"/>
       <use xlink:href="#DejaVuSans-68" x="233.757812"/>
       <use xlink:href="#DejaVuSans-61" x="297.136719"/>
       <use xlink:href="#DejaVuSans-6c" x="358.416016"/>
      </g>
     </g>
    </g>
    <g id="xtick_4">
     <g id="line2d_7">
      <path d="M 231.47625 494.961038 
L 231.47625 51.441037 
" clip-path="url(#pe9a218d46b)" style="fill: none; stroke: #ffffff; stroke-width: 0.8; stroke-linecap: square"/>
     </g>
     <g id="line2d_8">
      <g>
       <use xlink:href="#m01d64baefa" x="231.47625" y="494.961038" style="fill: #555555; stroke: #555555; stroke-width: 0.8"/>
      </g>
     </g>
     <g id="text_4">
      <!-- Loulé -->
      <g style="fill: #555555" transform="translate(233.407813 520.7101) rotate(-90) scale(0.07 -0.07)">
       <defs>
        <path id="DejaVuSans-e9" d="M 3597 1894 
L 3597 1613 
L 953 1613 
Q 991 1019 1311 708 
Q 1631 397 2203 397 
Q 2534 397 2845 478 
Q 3156 559 3463 722 
L 3463 178 
Q 3153 47 2828 -22 
Q 2503 -91 2169 -91 
Q 1331 -91 842 396 
Q 353 884 353 1716 
Q 353 2575 817 3079 
Q 1281 3584 2069 3584 
Q 2775 3584 3186 3129 
Q 3597 2675 3597 1894 
z
M 3022 2063 
Q 3016 2534 2758 2815 
Q 2500 3097 2075 3097 
Q 1594 3097 1305 2825 
Q 1016 2553 972 2059 
L 3022 2063 
z
M 2466 5119 
L 3088 5119 
L 2070 3944 
L 1591 3944 
L 2466 5119 
z
" transform="scale(0.015625)"/>
       </defs>
       <use xlink:href="#DejaVuSans-4c"/>
       <use xlink:href="#DejaVuSans-6f" x="53.962891"/>
       <use xlink:href="#DejaVuSans-75" x="115.144531"/>
       <use xlink:href="#DejaVuSans-6c" x="178.523438"/>
       <use xlink:href="#DejaVuSans-e9" x="206.306641"/>
      </g>
     </g>
    </g>
    <g id="xtick_5">
     <g id="line2d_9">
      <path d="M 287.27625 494.961038 
L 287.27625 51.441037 
" clip-path="url(#pe9a218d46b)" style="fill: none; stroke: #ffffff; stroke-width: 0.8; stroke-linecap: square"/>
     </g>
     <g id="line2d_10">
      <g>
       <use xlink:href="#m01d64baefa" x="287.27625" y="494.961038" style="fill: #555555; stroke: #555555; stroke-width: 0.8"/>
      </g>
     </g>
     <g id="text_5">
      <!-- Porto -->
      <g style="fill: #555555" transform="translate(289.207812 520.116194) rotate(-90) scale(0.07 -0.07)">
       <defs>
        <path id="DejaVuSans-50" d="M 1259 4147 
L 1259 2394 
L 2053 2394 
Q 2494 2394 2734 2622 
Q 2975 2850 2975 3272 
Q 2975 3691 2734 3919 
Q 2494 4147 2053 4147 
L 1259 4147 
z
M 628 4666 
L 2053 4666 
Q 2838 4666 3239 4311 
Q 3641 3956 3641 3272 
Q 3641 2581 3239 2228 
Q 2838 1875 2053 1875 
L 1259 1875 
L 1259 0 
L 628 0 
L 628 4666 
z
" transform="scale(0.015625)"/>
        <path id="DejaVuSans-74" d="M 1172 4494 
L 1172 3500 
L 2356 3500 
L 2356 3053 
L 1172 3053 
L 1172 1153 
Q 1172 725 1289 603 
Q 1406 481 1766 481 
L 2356 481 
L 2356 0 
L 1766 0 
Q 1100 0 847 248 
Q 594 497 594 1153 
L 594 3053 
L 172 3053 
L 172 3500 
L 594 3500 
L 594 4494 
L 1172 4494 
z
" transform="scale(0.015625)"/>
       </defs>
       <use xlink:href="#DejaVuSans-50"/>
       <use xlink:href="#DejaVuSans-6f" x="56.677734"/>
       <use xlink:href="#DejaVuSans-72" x="117.859375"/>
       <use xlink:href="#DejaVuSans-74" x="158.972656"/>
       <use xlink:href="#DejaVuSans-6f" x="198.181641"/>
      </g>
     </g>
    </g>
    <g id="xtick_6">
     <g id="line2d_11">
      <path d="M 343.07625 494.961038 
L 343.07625 51.441037 
" clip-path="url(#pe9a218d46b)" style="fill: none; stroke: #ffffff; stroke-width: 0.8; stroke-linecap: square"/>
     </g>
     <g id="line2d_12">
      <g>
       <use xlink:href="#m01d64baefa" x="343.07625" y="494.961038" style="fill: #555555; stroke: #555555; stroke-width: 0.8"/>
      </g>
     </g>
     <g id="text_6">
      <!-- Cascais -->
      <g style="fill: #555555" transform="translate(345.007812 528.5151) rotate(-90) scale(0.07 -0.07)">
       <defs>
        <path id="DejaVuSans-43" d="M 4122 4306 
L 4122 3641 
Q 3803 3938 3442 4084 
Q 3081 4231 2675 4231 
Q 1875 4231 1450 3742 
Q 1025 3253 1025 2328 
Q 1025 1406 1450 917 
Q 1875 428 2675 428 
Q 3081 428 3442 575 
Q 3803 722 4122 1019 
L 4122 359 
Q 3791 134 3420 21 
Q 3050 -91 2638 -91 
Q 1578 -91 968 557 
Q 359 1206 359 2328 
Q 359 3453 968 4101 
Q 1578 4750 2638 4750 
Q 3056 4750 3426 4639 
Q 3797 4528 4122 4306 
z
" transform="scale(0.015625)"/>
       </defs>
       <use xlink:href="#DejaVuSans-43"/>
       <use xlink:href="#DejaVuSans-61" x="69.824219"/>
       <use xlink:href="#DejaVuSans-73" x="131.103516"/>
       <use xlink:href="#DejaVuSans-63" x="183.203125"/>
       <use xlink:href="#DejaVuSans-61" x="238.183594"/>
       <use xlink:href="#DejaVuSans-69" x="299.462891"/>
       <use xlink:href="#DejaVuSans-73" x="327.246094"/>
      </g>
     </g>
    </g>
    <g id="xtick_7">
     <g id="line2d_13">
      <path d="M 398.87625 494.961038 
L 398.87625 51.441037 
" clip-path="url(#pe9a218d46b)" style="fill: none; stroke: #ffffff; stroke-width: 0.8; stroke-linecap: square"/>
     </g>
     <g id="line2d_14">
      <g>
       <use xlink:href="#m01d64baefa" x="398.87625" y="494.961038" style="fill: #555555; stroke: #555555; stroke-width: 0.8"/>
      </g>
     </g>
     <g id="text_7">
      <!-- Portimão -->
      <g style="fill: #555555" transform="translate(400.807813 533.169006) rotate(-90) scale(0.07 -0.07)">
       <defs>
        <path id="DejaVuSans-6d" d="M 3328 2828 
Q 3544 3216 3844 3400 
Q 4144 3584 4550 3584 
Q 5097 3584 5394 3201 
Q 5691 2819 5691 2113 
L 5691 0 
L 5113 0 
L 5113 2094 
Q 5113 2597 4934 2840 
Q 4756 3084 4391 3084 
Q 3944 3084 3684 2787 
Q 3425 2491 3425 1978 
L 3425 0 
L 2847 0 
L 2847 2094 
Q 2847 2600 2669 2842 
Q 2491 3084 2119 3084 
Q 1678 3084 1418 2786 
Q 1159 2488 1159 1978 
L 1159 0 
L 581 0 
L 581 3500 
L 1159 3500 
L 1159 2956 
Q 1356 3278 1631 3431 
Q 1906 3584 2284 3584 
Q 2666 3584 2933 3390 
Q 3200 3197 3328 2828 
z
" transform="scale(0.015625)"/>
        <path id="DejaVuSans-e3" d="M 2194 1759 
Q 1497 1759 1228 1600 
Q 959 1441 959 1056 
Q 959 750 1161 570 
Q 1363 391 1709 391 
Q 2188 391 2477 730 
Q 2766 1069 2766 1631 
L 2766 1759 
L 2194 1759 
z
M 3341 1997 
L 3341 0 
L 2766 0 
L 2766 531 
Q 2569 213 2275 61 
Q 1981 -91 1556 -91 
Q 1019 -91 701 211 
Q 384 513 384 1019 
Q 384 1609 779 1909 
Q 1175 2209 1959 2209 
L 2766 2209 
L 2766 2266 
Q 2766 2663 2505 2880 
Q 2244 3097 1772 3097 
Q 1472 3097 1187 3025 
Q 903 2953 641 2809 
L 641 3341 
Q 956 3463 1253 3523 
Q 1550 3584 1831 3584 
Q 2591 3584 2966 3190 
Q 3341 2797 3341 1997 
z
M 1844 4281 
L 1665 4453 
Q 1597 4516 1545 4545 
Q 1494 4575 1453 4575 
Q 1334 4575 1278 4461 
Q 1222 4347 1215 4091 
L 825 4091 
Q 831 4513 990 4742 
Q 1150 4972 1434 4972 
Q 1553 4972 1653 4928 
Q 1753 4884 1869 4781 
L 2047 4609 
Q 2115 4547 2167 4517 
Q 2219 4488 2259 4488 
Q 2378 4488 2434 4602 
Q 2490 4716 2497 4972 
L 2887 4972 
Q 2881 4550 2721 4320 
Q 2562 4091 2278 4091 
Q 2159 4091 2059 4134 
Q 1959 4178 1844 4281 
z
" transform="scale(0.015625)"/>
       </defs>
       <use xlink:href="#DejaVuSans-50"/>
       <use xlink:href="#DejaVuSans-6f" x="56.677734"/>
       <use xlink:href="#DejaVuSans-72" x="117.859375"/>
       <use xlink:href="#DejaVuSans-74" x="158.972656"/>
       <use xlink:href="#DejaVuSans-69" x="198.181641"/>
       <use xlink:href="#DejaVuSans-6d" x="225.964844"/>
       <use xlink:href="#DejaVuSans-e3" x="323.376953"/>
       <use xlink:href="#DejaVuSans-6f" x="384.65625"/>
      </g>
     </g>
    </g>
    <g id="xtick_8">
     <g id="line2d_15">
      <path d="M 454.67625 494.961038 
L 454.67625 51.441037 
" clip-path="url(#pe9a218d46b)" style="fill: none; stroke: #ffffff; stroke-width: 0.8; stroke-linecap: square"/>
     </g>
     <g id="line2d_16">
      <g>
       <use xlink:href="#m01d64baefa" x="454.67625" y="494.961038" style="fill: #555555; stroke: #555555; stroke-width: 0.8"/>
      </g>
     </g>
     <g id="text_8">
      <!-- Lagoa -->
      <g style="fill: #555555" transform="translate(456.607813 523.167756) rotate(-90) scale(0.07 -0.07)">
       <defs>
        <path id="DejaVuSans-67" d="M 2906 1791 
Q 2906 2416 2648 2759 
Q 2391 3103 1925 3103 
Q 1463 3103 1205 2759 
Q 947 2416 947 1791 
Q 947 1169 1205 825 
Q 1463 481 1925 481 
Q 2391 481 2648 825 
Q 2906 1169 2906 1791 
z
M 3481 434 
Q 3481 -459 3084 -895 
Q 2688 -1331 1869 -1331 
Q 1566 -1331 1297 -1286 
Q 1028 -1241 775 -1147 
L 775 -588 
Q 1028 -725 1275 -790 
Q 1522 -856 1778 -856 
Q 2344 -856 2625 -561 
Q 2906 -266 2906 331 
L 2906 616 
Q 2728 306 2450 153 
Q 2172 0 1784 0 
Q 1141 0 747 490 
Q 353 981 353 1791 
Q 353 2603 747 3093 
Q 1141 3584 1784 3584 
Q 2172 3584 2450 3431 
Q 2728 3278 2906 2969 
L 2906 3500 
L 3481 3500 
L 3481 434 
z
" transform="scale(0.015625)"/>
       </defs>
       <use xlink:href="#DejaVuSans-4c"/>
       <use xlink:href="#DejaVuSans-61" x="55.712891"/>
       <use xlink:href="#DejaVuSans-67" x="116.992188"/>
       <use xlink:href="#DejaVuSans-6f" x="180.46875"/>
       <use xlink:href="#DejaVuSans-61" x="241.650391"/>
      </g>
     </g>
    </g>
    <g id="xtick_9">
     <g id="line2d_17">
      <path d="M 510.47625 494.961038 
L 510.47625 51.441037 
" clip-path="url(#pe9a218d46b)" style="fill: none; stroke: #ffffff; stroke-width: 0.8; stroke-linecap: square"/>
     </g>
     <g id="line2d_18">
      <g>
       <use xlink:href="#m01d64baefa" x="510.47625" y="494.961038" style="fill: #555555; stroke: #555555; stroke-width: 0.8"/>
      </g>
     </g>
     <g id="text_9">
      <!-- Lagos -->
      <g style="fill: #555555" transform="translate(512.407813 522.524631) rotate(-90) scale(0.07 -0.07)">
       <use xlink:href="#DejaVuSans-4c"/>
       <use xlink:href="#DejaVuSans-61" x="55.712891"/>
       <use xlink:href="#DejaVuSans-67" x="116.992188"/>
       <use xlink:href="#DejaVuSans-6f" x="180.46875"/>
       <use xlink:href="#DejaVuSans-73" x="241.650391"/>
      </g>
     </g>
    </g>
    <g id="xtick_10">
     <g id="line2d_19">
      <path d="M 566.27625 494.961038 
L 566.27625 51.441037 
" clip-path="url(#pe9a218d46b)" style="fill: none; stroke: #ffffff; stroke-width: 0.8; stroke-linecap: square"/>
     </g>
     <g id="line2d_20">
      <g>
       <use xlink:href="#m01d64baefa" x="566.27625" y="494.961038" style="fill: #555555; stroke: #555555; stroke-width: 0.8"/>
      </g>
     </g>
     <g id="text_10">
      <!-- Vila Real de Santo António -->
      <g style="fill: #555555" transform="translate(568.207813 594.624631) rotate(-90) scale(0.07 -0.07)">
       <defs>
        <path id="DejaVuSans-56" d="M 1831 0 
L 50 4666 
L 709 4666 
L 2188 738 
L 3669 4666 
L 4325 4666 
L 2547 0 
L 1831 0 
z
" transform="scale(0.015625)"/>
        <path id="DejaVuSans-20" transform="scale(0.015625)"/>
        <path id="DejaVuSans-52" d="M 2841 2188 
Q 3044 2119 3236 1894 
Q 3428 1669 3622 1275 
L 4263 0 
L 3584 0 
L 2988 1197 
Q 2756 1666 2539 1819 
Q 2322 1972 1947 1972 
L 1259 1972 
L 1259 0 
L 628 0 
L 628 4666 
L 2053 4666 
Q 2853 4666 3247 4331 
Q 3641 3997 3641 3322 
Q 3641 2881 3436 2590 
Q 3231 2300 2841 2188 
z
M 1259 4147 
L 1259 2491 
L 2053 2491 
Q 2509 2491 2742 2702 
Q 2975 2913 2975 3322 
Q 2975 3731 2742 3939 
Q 2509 4147 2053 4147 
L 1259 4147 
z
" transform="scale(0.015625)"/>
        <path id="DejaVuSans-64" d="M 2906 2969 
L 2906 4863 
L 3481 4863 
L 3481 0 
L 2906 0 
L 2906 525 
Q 2725 213 2448 61 
Q 2172 -91 1784 -91 
Q 1150 -91 751 415 
Q 353 922 353 1747 
Q 353 2572 751 3078 
Q 1150 3584 1784 3584 
Q 2172 3584 2448 3432 
Q 2725 3281 2906 2969 
z
M 947 1747 
Q 947 1113 1208 752 
Q 1469 391 1925 391 
Q 2381 391 2643 752 
Q 2906 1113 2906 1747 
Q 2906 2381 2643 2742 
Q 2381 3103 1925 3103 
Q 1469 3103 1208 2742 
Q 947 2381 947 1747 
z
" transform="scale(0.015625)"/>
        <path id="DejaVuSans-53" d="M 3425 4513 
L 3425 3897 
Q 3066 4069 2747 4153 
Q 2428 4238 2131 4238 
Q 1616 4238 1336 4038 
Q 1056 3838 1056 3469 
Q 1056 3159 1242 3001 
Q 1428 2844 1947 2747 
L 2328 2669 
Q 3034 2534 3370 2195 
Q 3706 1856 3706 1288 
Q 3706 609 3251 259 
Q 2797 -91 1919 -91 
Q 1588 -91 1214 -16 
Q 841 59 441 206 
L 441 856 
Q 825 641 1194 531 
Q 1563 422 1919 422 
Q 2459 422 2753 634 
Q 3047 847 3047 1241 
Q 3047 1584 2836 1778 
Q 2625 1972 2144 2069 
L 1759 2144 
Q 1053 2284 737 2584 
Q 422 2884 422 3419 
Q 422 4038 858 4394 
Q 1294 4750 2059 4750 
Q 2388 4750 2728 4690 
Q 3069 4631 3425 4513 
z
" transform="scale(0.015625)"/>
        <path id="DejaVuSans-f3" d="M 1959 3097 
Q 1497 3097 1228 2736 
Q 959 2375 959 1747 
Q 959 1119 1226 758 
Q 1494 397 1959 397 
Q 2419 397 2687 759 
Q 2956 1122 2956 1747 
Q 2956 2369 2687 2733 
Q 2419 3097 1959 3097 
z
M 1959 3584 
Q 2709 3584 3137 3096 
Q 3566 2609 3566 1747 
Q 3566 888 3137 398 
Q 2709 -91 1959 -91 
Q 1206 -91 779 398 
Q 353 888 353 1747 
Q 353 2609 779 3096 
Q 1206 3584 1959 3584 
z
M 2394 5119 
L 3016 5119 
L 1998 3944 
L 1519 3944 
L 2394 5119 
z
" transform="scale(0.015625)"/>
       </defs>
       <use xlink:href="#DejaVuSans-56"/>
       <use xlink:href="#DejaVuSans-69" x="66.158203"/>
       <use xlink:href="#DejaVuSans-6c" x="93.941406"/>
       <use xlink:href="#DejaVuSans-61" x="121.724609"/>
       <use xlink:href="#DejaVuSans-20" x="183.003906"/>
       <use xlink:href="#DejaVuSans-52" x="214.791016"/>
       <use xlink:href="#DejaVuSans-65" x="279.773438"/>
       <use xlink:href="#DejaVuSans-61" x="341.296875"/>
       <use xlink:href="#DejaVuSans-6c" x="402.576172"/>
       <use xlink:href="#DejaVuSans-20" x="430.359375"/>
       <use xlink:href="#DejaVuSans-64" x="462.146484"/>
       <use xlink:href="#DejaVuSans-65" x="525.623047"/>
       <use xlink:href="#DejaVuSans-20" x="587.146484"/>
       <use xlink:href="#DejaVuSans-53" x="618.933594"/>
       <use xlink:href="#DejaVuSans-61" x="682.410156"/>
       <use xlink:href="#DejaVuSans-6e" x="743.689453"/>
       <use xlink:href="#DejaVuSans-74" x="807.068359"/>
       <use xlink:href="#DejaVuSans-6f" x="846.277344"/>
       <use xlink:href="#DejaVuSans-20" x="907.458984"/>
       <use xlink:href="#DejaVuSans-41" x="939.246094"/>
       <use xlink:href="#DejaVuSans-6e" x="1007.654297"/>
       <use xlink:href="#DejaVuSans-74" x="1071.033203"/>
       <use xlink:href="#DejaVuSans-f3" x="1110.242188"/>
       <use xlink:href="#DejaVuSans-6e" x="1171.423828"/>
       <use xlink:href="#DejaVuSans-69" x="1234.802734"/>
       <use xlink:href="#DejaVuSans-6f" x="1262.585938"/>
      </g>
     </g>
    </g>
    <g id="text_11">
     <!-- Ragião -->
     <g style="fill: #555555" transform="translate(294.64125 607.947131) scale(0.12 -0.12)">
      <use xlink:href="#DejaVuSans-52"/>
      <use xlink:href="#DejaVuSans-61" x="67.232422"/>
      <use xlink:href="#DejaVuSans-67" x="128.511719"/>
      <use xlink:href="#DejaVuSans-69" x="191.988281"/>
      <use xlink:href="#DejaVuSans-e3" x="219.771484"/>
      <use xlink:href="#DejaVuSans-6f" x="281.050781"/>
     </g>
    </g>
   </g>
   <g id="matplotlib.axis_2">
    <g id="ytick_1">
     <g id="line2d_21">
      <path d="M 36.17625 476.039303 
L 594.17625 476.039303 
" clip-path="url(#pe9a218d46b)" style="fill: none; stroke: #ffffff; stroke-width: 0.8; stroke-linecap: square"/>
     </g>
     <g id="line2d_22">
      <defs>
       <path id="mc321f03b4b" d="M 0 0 
L -3.5 0 
" style="stroke: #555555; stroke-width: 0.8"/>
      </defs>
      <g>
       <use xlink:href="#mc321f03b4b" x="36.17625" y="476.039303" style="fill: #555555; stroke: #555555; stroke-width: 0.8"/>
      </g>
     </g>
     <g id="text_12">
      <!-- 0 -->
      <g style="fill: #555555" transform="translate(22.81375 479.838522) scale(0.1 -0.1)">
       <defs>
        <path id="DejaVuSans-30" d="M 2034 4250 
Q 1547 4250 1301 3770 
Q 1056 3291 1056 2328 
Q 1056 1369 1301 889 
Q 1547 409 2034 409 
Q 2525 409 2770 889 
Q 3016 1369 3016 2328 
Q 3016 3291 2770 3770 
Q 2525 4250 2034 4250 
z
M 2034 4750 
Q 2819 4750 3233 4129 
Q 3647 3509 3647 2328 
Q 3647 1150 3233 529 
Q 2819 -91 2034 -91 
Q 1250 -91 836 529 
Q 422 1150 422 2328 
Q 422 3509 836 4129 
Q 1250 4750 2034 4750 
z
" transform="scale(0.015625)"/>
       </defs>
       <use xlink:href="#DejaVuSans-30"/>
      </g>
     </g>
    </g>
    <g id="ytick_2">
     <g id="line2d_23">
      <path d="M 36.17625 416.392595 
L 594.17625 416.392595 
" clip-path="url(#pe9a218d46b)" style="fill: none; stroke: #ffffff; stroke-width: 0.8; stroke-linecap: square"/>
     </g>
     <g id="line2d_24">
      <g>
       <use xlink:href="#mc321f03b4b" x="36.17625" y="416.392595" style="fill: #555555; stroke: #555555; stroke-width: 0.8"/>
      </g>
     </g>
     <g id="text_13">
      <!-- 1 -->
      <g style="fill: #555555" transform="translate(22.81375 420.191813) scale(0.1 -0.1)">
       <defs>
        <path id="DejaVuSans-31" d="M 794 531 
L 1825 531 
L 1825 4091 
L 703 3866 
L 703 4441 
L 1819 4666 
L 2450 4666 
L 2450 531 
L 3481 531 
L 3481 0 
L 794 0 
L 794 531 
z
" transform="scale(0.015625)"/>
       </defs>
       <use xlink:href="#DejaVuSans-31"/>
      </g>
     </g>
    </g>
    <g id="ytick_3">
     <g id="line2d_25">
      <path d="M 36.17625 356.745886 
L 594.17625 356.745886 
" clip-path="url(#pe9a218d46b)" style="fill: none; stroke: #ffffff; stroke-width: 0.8; stroke-linecap: square"/>
     </g>
     <g id="line2d_26">
      <g>
       <use xlink:href="#mc321f03b4b" x="36.17625" y="356.745886" style="fill: #555555; stroke: #555555; stroke-width: 0.8"/>
      </g>
     </g>
     <g id="text_14">
      <!-- 2 -->
      <g style="fill: #555555" transform="translate(22.81375 360.545105) scale(0.1 -0.1)">
       <defs>
        <path id="DejaVuSans-32" d="M 1228 531 
L 3431 531 
L 3431 0 
L 469 0 
L 469 531 
Q 828 903 1448 1529 
Q 2069 2156 2228 2338 
Q 2531 2678 2651 2914 
Q 2772 3150 2772 3378 
Q 2772 3750 2511 3984 
Q 2250 4219 1831 4219 
Q 1534 4219 1204 4116 
Q 875 4013 500 3803 
L 500 4441 
Q 881 4594 1212 4672 
Q 1544 4750 1819 4750 
Q 2544 4750 2975 4387 
Q 3406 4025 3406 3419 
Q 3406 3131 3298 2873 
Q 3191 2616 2906 2266 
Q 2828 2175 2409 1742 
Q 1991 1309 1228 531 
z
" transform="scale(0.015625)"/>
       </defs>
       <use xlink:href="#DejaVuSans-32"/>
      </g>
     </g>
    </g>
    <g id="ytick_4">
     <g id="line2d_27">
      <path d="M 36.17625 297.099177 
L 594.17625 297.099177 
" clip-path="url(#pe9a218d46b)" style="fill: none; stroke: #ffffff; stroke-width: 0.8; stroke-linecap: square"/>
     </g>
     <g id="line2d_28">
      <g>
       <use xlink:href="#mc321f03b4b" x="36.17625" y="297.099177" style="fill: #555555; stroke: #555555; stroke-width: 0.8"/>
      </g>
     </g>
     <g id="text_15">
      <!-- 3 -->
      <g style="fill: #555555" transform="translate(22.81375 300.898396) scale(0.1 -0.1)">
       <defs>
        <path id="DejaVuSans-33" d="M 2597 2516 
Q 3050 2419 3304 2112 
Q 3559 1806 3559 1356 
Q 3559 666 3084 287 
Q 2609 -91 1734 -91 
Q 1441 -91 1130 -33 
Q 819 25 488 141 
L 488 750 
Q 750 597 1062 519 
Q 1375 441 1716 441 
Q 2309 441 2620 675 
Q 2931 909 2931 1356 
Q 2931 1769 2642 2001 
Q 2353 2234 1838 2234 
L 1294 2234 
L 1294 2753 
L 1863 2753 
Q 2328 2753 2575 2939 
Q 2822 3125 2822 3475 
Q 2822 3834 2567 4026 
Q 2313 4219 1838 4219 
Q 1578 4219 1281 4162 
Q 984 4106 628 3988 
L 628 4550 
Q 988 4650 1302 4700 
Q 1616 4750 1894 4750 
Q 2613 4750 3031 4423 
Q 3450 4097 3450 3541 
Q 3450 3153 3228 2886 
Q 3006 2619 2597 2516 
z
" transform="scale(0.015625)"/>
       </defs>
       <use xlink:href="#DejaVuSans-33"/>
      </g>
     </g>
    </g>
    <g id="ytick_5">
     <g id="line2d_29">
      <path d="M 36.17625 237.452469 
L 594.17625 237.452469 
" clip-path="url(#pe9a218d46b)" style="fill: none; stroke: #ffffff; stroke-width: 0.8; stroke-linecap: square"/>
     </g>
     <g id="line2d_30">
      <g>
       <use xlink:href="#mc321f03b4b" x="36.17625" y="237.452469" style="fill: #555555; stroke: #555555; stroke-width: 0.8"/>
      </g>
     </g>
     <g id="text_16">
      <!-- 4 -->
      <g style="fill: #555555" transform="translate(22.81375 241.251687) scale(0.1 -0.1)">
       <defs>
        <path id="DejaVuSans-34" d="M 2419 4116 
L 825 1625 
L 2419 1625 
L 2419 4116 
z
M 2253 4666 
L 3047 4666 
L 3047 1625 
L 3713 1625 
L 3713 1100 
L 3047 1100 
L 3047 0 
L 2419 0 
L 2419 1100 
L 313 1100 
L 313 1709 
L 2253 4666 
z
" transform="scale(0.015625)"/>
       </defs>
       <use xlink:href="#DejaVuSans-34"/>
      </g>
     </g>
    </g>
    <g id="ytick_6">
     <g id="line2d_31">
      <path d="M 36.17625 177.80576 
L 594.17625 177.80576 
" clip-path="url(#pe9a218d46b)" style="fill: none; stroke: #ffffff; stroke-width: 0.8; stroke-linecap: square"/>
     </g>
     <g id="line2d_32">
      <g>
       <use xlink:href="#mc321f03b4b" x="36.17625" y="177.80576" style="fill: #555555; stroke: #555555; stroke-width: 0.8"/>
      </g>
     </g>
     <g id="text_17">
      <!-- 5 -->
      <g style="fill: #555555" transform="translate(22.81375 181.604979) scale(0.1 -0.1)">
       <defs>
        <path id="DejaVuSans-35" d="M 691 4666 
L 3169 4666 
L 3169 4134 
L 1269 4134 
L 1269 2991 
Q 1406 3038 1543 3061 
Q 1681 3084 1819 3084 
Q 2600 3084 3056 2656 
Q 3513 2228 3513 1497 
Q 3513 744 3044 326 
Q 2575 -91 1722 -91 
Q 1428 -91 1123 -41 
Q 819 9 494 109 
L 494 744 
Q 775 591 1075 516 
Q 1375 441 1709 441 
Q 2250 441 2565 725 
Q 2881 1009 2881 1497 
Q 2881 1984 2565 2268 
Q 2250 2553 1709 2553 
Q 1456 2553 1204 2497 
Q 953 2441 691 2322 
L 691 4666 
z
" transform="scale(0.015625)"/>
       </defs>
       <use xlink:href="#DejaVuSans-35"/>
      </g>
     </g>
    </g>
    <g id="ytick_7">
     <g id="line2d_33">
      <path d="M 36.17625 118.159051 
L 594.17625 118.159051 
" clip-path="url(#pe9a218d46b)" style="fill: none; stroke: #ffffff; stroke-width: 0.8; stroke-linecap: square"/>
     </g>
     <g id="line2d_34">
      <g>
       <use xlink:href="#mc321f03b4b" x="36.17625" y="118.159051" style="fill: #555555; stroke: #555555; stroke-width: 0.8"/>
      </g>
     </g>
     <g id="text_18">
      <!-- 6 -->
      <g style="fill: #555555" transform="translate(22.81375 121.95827) scale(0.1 -0.1)">
       <defs>
        <path id="DejaVuSans-36" d="M 2113 2584 
Q 1688 2584 1439 2293 
Q 1191 2003 1191 1497 
Q 1191 994 1439 701 
Q 1688 409 2113 409 
Q 2538 409 2786 701 
Q 3034 994 3034 1497 
Q 3034 2003 2786 2293 
Q 2538 2584 2113 2584 
z
M 3366 4563 
L 3366 3988 
Q 3128 4100 2886 4159 
Q 2644 4219 2406 4219 
Q 1781 4219 1451 3797 
Q 1122 3375 1075 2522 
Q 1259 2794 1537 2939 
Q 1816 3084 2150 3084 
Q 2853 3084 3261 2657 
Q 3669 2231 3669 1497 
Q 3669 778 3244 343 
Q 2819 -91 2113 -91 
Q 1303 -91 875 529 
Q 447 1150 447 2328 
Q 447 3434 972 4092 
Q 1497 4750 2381 4750 
Q 2619 4750 2861 4703 
Q 3103 4656 3366 4563 
z
" transform="scale(0.015625)"/>
       </defs>
       <use xlink:href="#DejaVuSans-36"/>
      </g>
     </g>
    </g>
    <g id="ytick_8">
     <g id="line2d_35">
      <path d="M 36.17625 58.512343 
L 594.17625 58.512343 
" clip-path="url(#pe9a218d46b)" style="fill: none; stroke: #ffffff; stroke-width: 0.8; stroke-linecap: square"/>
     </g>
     <g id="line2d_36">
      <g>
       <use xlink:href="#mc321f03b4b" x="36.17625" y="58.512343" style="fill: #555555; stroke: #555555; stroke-width: 0.8"/>
      </g>
     </g>
     <g id="text_19">
      <!-- 7 -->
      <g style="fill: #555555" transform="translate(22.81375 62.311561) scale(0.1 -0.1)">
       <defs>
        <path id="DejaVuSans-37" d="M 525 4666 
L 3525 4666 
L 3525 4397 
L 1831 0 
L 1172 0 
L 2766 4134 
L 525 4134 
L 525 4666 
z
" transform="scale(0.015625)"/>
       </defs>
       <use xlink:href="#DejaVuSans-37"/>
      </g>
     </g>
    </g>
    <g id="text_20">
     <!-- Proveito em euros -->
     <g style="fill: #555555" transform="translate(16.318125 327.622913) rotate(-90) scale(0.12 -0.12)">
      <defs>
       <path id="DejaVuSans-76" d="M 191 3500 
L 800 3500 
L 1894 563 
L 2988 3500 
L 3597 3500 
L 2284 0 
L 1503 0 
L 191 3500 
z
" transform="scale(0.015625)"/>
      </defs>
      <use xlink:href="#DejaVuSans-50"/>
      <use xlink:href="#DejaVuSans-72" x="58.552734"/>
      <use xlink:href="#DejaVuSans-6f" x="97.416016"/>
      <use xlink:href="#DejaVuSans-76" x="158.597656"/>
      <use xlink:href="#DejaVuSans-65" x="217.777344"/>
      <use xlink:href="#DejaVuSans-69" x="279.300781"/>
      <use xlink:href="#DejaVuSans-74" x="307.083984"/>
      <use xlink:href="#DejaVuSans-6f" x="346.292969"/>
      <use xlink:href="#DejaVuSans-20" x="407.474609"/>
      <use xlink:href="#DejaVuSans-65" x="439.261719"/>
      <use xlink:href="#DejaVuSans-6d" x="500.785156"/>
      <use xlink:href="#DejaVuSans-20" x="598.197266"/>
      <use xlink:href="#DejaVuSans-65" x="629.984375"/>
      <use xlink:href="#DejaVuSans-75" x="691.507812"/>
      <use xlink:href="#DejaVuSans-72" x="754.886719"/>
      <use xlink:href="#DejaVuSans-6f" x="793.75"/>
      <use xlink:href="#DejaVuSans-73" x="854.931641"/>
     </g>
    </g>
    <g id="text_21">
     <!-- 1e6 -->
     <g style="fill: #555555" transform="translate(36.17625 48.441037) scale(0.1 -0.1)">
      <use xlink:href="#DejaVuSans-31"/>
      <use xlink:href="#DejaVuSans-65" x="63.623047"/>
      <use xlink:href="#DejaVuSans-36" x="125.146484"/>
     </g>
    </g>
   </g>
   <g id="line2d_37">
    <path d="M 50.12625 453.544561 
L 78.02625 453.544561 
L 78.02625 423.974228 
L 50.12625 423.974228 
L 50.12625 453.544561 
" clip-path="url(#pe9a218d46b)" style="fill: none; stroke: #000000; stroke-linecap: square"/>
   </g>
   <g id="line2d_38">
    <path d="M 64.07625 453.544561 
L 64.07625 463.581969 
" clip-path="url(#pe9a218d46b)" style="fill: none; stroke: #000000; stroke-linecap: square"/>
   </g>
   <g id="line2d_39">
    <path d="M 64.07625 423.974228 
L 64.07625 413.852778 
" clip-path="url(#pe9a218d46b)" style="fill: none; stroke: #000000; stroke-linecap: square"/>
   </g>
   <g id="line2d_40">
    <path d="M 57.10125 463.581969 
L 71.05125 463.581969 
" clip-path="url(#pe9a218d46b)" style="fill: none; stroke: #000000; stroke-linecap: square"/>
   </g>
   <g id="line2d_41">
    <path d="M 57.10125 413.852778 
L 71.05125 413.852778 
" clip-path="url(#pe9a218d46b)" style="fill: none; stroke: #000000; stroke-linecap: square"/>
   </g>
   <g id="line2d_42">
    <defs>
     <path id="m53dde78d25" d="M 0 3 
C 0.795609 3 1.55874 2.683901 2.12132 2.12132 
C 2.683901 1.55874 3 0.795609 3 0 
C 3 -0.795609 2.683901 -1.55874 2.12132 -2.12132 
C 1.55874 -2.683901 0.795609 -3 0 -3 
C -0.795609 -3 -1.55874 -2.683901 -2.12132 -2.12132 
C -2.683901 -1.55874 -3 -0.795609 -3 0 
C -3 0.795609 -2.683901 1.55874 -2.12132 2.12132 
C -1.55874 2.683901 -0.795609 3 0 3 
z
" style="stroke: #000000"/>
    </defs>
    <g clip-path="url(#pe9a218d46b)">
     <use xlink:href="#m53dde78d25" x="64.07625" y="71.601038" style="fill-opacity: 0; stroke: #000000"/>
    </g>
   </g>
   <g id="line2d_43">
    <path d="M 105.92625 463.391934 
L 133.82625 463.391934 
L 133.82625 452.49633 
L 105.92625 452.49633 
L 105.92625 463.391934 
" clip-path="url(#pe9a218d46b)" style="fill: none; stroke: #000000; stroke-linecap: square"/>
   </g>
   <g id="line2d_44">
    <path d="M 119.87625 463.391934 
L 119.87625 467.536426 
" clip-path="url(#pe9a218d46b)" style="fill: none; stroke: #000000; stroke-linecap: square"/>
   </g>
   <g id="line2d_45">
    <path d="M 119.87625 452.49633 
L 119.87625 450.118454 
" clip-path="url(#pe9a218d46b)" style="fill: none; stroke: #000000; stroke-linecap: square"/>
   </g>
   <g id="line2d_46">
    <path d="M 112.90125 467.536426 
L 126.85125 467.536426 
" clip-path="url(#pe9a218d46b)" style="fill: none; stroke: #000000; stroke-linecap: square"/>
   </g>
   <g id="line2d_47">
    <path d="M 112.90125 450.118454 
L 126.85125 450.118454 
" clip-path="url(#pe9a218d46b)" style="fill: none; stroke: #000000; stroke-linecap: square"/>
   </g>
   <g id="line2d_48">
    <g clip-path="url(#pe9a218d46b)">
     <use xlink:href="#m53dde78d25" x="119.87625" y="278.226243" style="fill-opacity: 0; stroke: #000000"/>
    </g>
   </g>
   <g id="line2d_49">
    <path d="M 161.72625 465.4507 
L 189.62625 465.4507 
L 189.62625 459.356954 
L 161.72625 459.356954 
L 161.72625 465.4507 
" clip-path="url(#pe9a218d46b)" style="fill: none; stroke: #000000; stroke-linecap: square"/>
   </g>
   <g id="line2d_50">
    <path d="M 175.67625 465.4507 
L 175.67625 470.781207 
" clip-path="url(#pe9a218d46b)" style="fill: none; stroke: #000000; stroke-linecap: square"/>
   </g>
   <g id="line2d_51">
    <path d="M 175.67625 459.356954 
L 175.67625 458.480147 
" clip-path="url(#pe9a218d46b)" style="fill: none; stroke: #000000; stroke-linecap: square"/>
   </g>
   <g id="line2d_52">
    <path d="M 168.70125 470.781207 
L 182.65125 470.781207 
" clip-path="url(#pe9a218d46b)" style="fill: none; stroke: #000000; stroke-linecap: square"/>
   </g>
   <g id="line2d_53">
    <path d="M 168.70125 458.480147 
L 182.65125 458.480147 
" clip-path="url(#pe9a218d46b)" style="fill: none; stroke: #000000; stroke-linecap: square"/>
   </g>
   <g id="line2d_54">
    <g clip-path="url(#pe9a218d46b)">
     <use xlink:href="#m53dde78d25" x="175.67625" y="324.883151" style="fill-opacity: 0; stroke: #000000"/>
    </g>
   </g>
   <g id="line2d_55">
    <path d="M 217.52625 469.572407 
L 245.42625 469.572407 
L 245.42625 465.062281 
L 217.52625 465.062281 
L 217.52625 469.572407 
" clip-path="url(#pe9a218d46b)" style="fill: none; stroke: #000000; stroke-linecap: square"/>
   </g>
   <g id="line2d_56">
    <path d="M 231.47625 469.572407 
L 231.47625 471.026534 
" clip-path="url(#pe9a218d46b)" style="fill: none; stroke: #000000; stroke-linecap: square"/>
   </g>
   <g id="line2d_57">
    <path d="M 231.47625 465.062281 
L 231.47625 462.750315 
" clip-path="url(#pe9a218d46b)" style="fill: none; stroke: #000000; stroke-linecap: square"/>
   </g>
   <g id="line2d_58">
    <path d="M 224.50125 471.026534 
L 238.45125 471.026534 
" clip-path="url(#pe9a218d46b)" style="fill: none; stroke: #000000; stroke-linecap: square"/>
   </g>
   <g id="line2d_59">
    <path d="M 224.50125 462.750315 
L 238.45125 462.750315 
" clip-path="url(#pe9a218d46b)" style="fill: none; stroke: #000000; stroke-linecap: square"/>
   </g>
   <g id="line2d_60">
    <g clip-path="url(#pe9a218d46b)">
     <use xlink:href="#m53dde78d25" x="231.47625" y="374.847708" style="fill-opacity: 0; stroke: #000000"/>
    </g>
   </g>
   <g id="line2d_61">
    <path d="M 273.32625 471.016573 
L 301.22625 471.016573 
L 301.22625 463.00435 
L 273.32625 463.00435 
L 273.32625 471.016573 
" clip-path="url(#pe9a218d46b)" style="fill: none; stroke: #000000; stroke-linecap: square"/>
   </g>
   <g id="line2d_62">
    <path d="M 287.27625 471.016573 
L 287.27625 472.282038 
" clip-path="url(#pe9a218d46b)" style="fill: none; stroke: #000000; stroke-linecap: square"/>
   </g>
   <g id="line2d_63">
    <path d="M 287.27625 463.00435 
L 287.27625 458.614412 
" clip-path="url(#pe9a218d46b)" style="fill: none; stroke: #000000; stroke-linecap: square"/>
   </g>
   <g id="line2d_64">
    <path d="M 280.30125 472.282038 
L 294.25125 472.282038 
" clip-path="url(#pe9a218d46b)" style="fill: none; stroke: #000000; stroke-linecap: square"/>
   </g>
   <g id="line2d_65">
    <path d="M 280.30125 458.614412 
L 294.25125 458.614412 
" clip-path="url(#pe9a218d46b)" style="fill: none; stroke: #000000; stroke-linecap: square"/>
   </g>
   <g id="line2d_66">
    <g clip-path="url(#pe9a218d46b)">
     <use xlink:href="#m53dde78d25" x="287.27625" y="376.222505" style="fill-opacity: 0; stroke: #000000"/>
    </g>
   </g>
   <g id="line2d_67">
    <path d="M 329.12625 471.004763 
L 357.02625 471.004763 
L 357.02625 467.873609 
L 329.12625 467.873609 
L 329.12625 471.004763 
" clip-path="url(#pe9a218d46b)" style="fill: none; stroke: #000000; stroke-linecap: square"/>
   </g>
   <g id="line2d_68">
    <path d="M 343.07625 471.004763 
L 343.07625 473.802313 
" clip-path="url(#pe9a218d46b)" style="fill: none; stroke: #000000; stroke-linecap: square"/>
   </g>
   <g id="line2d_69">
    <path d="M 343.07625 467.873609 
L 343.07625 467.205029 
" clip-path="url(#pe9a218d46b)" style="fill: none; stroke: #000000; stroke-linecap: square"/>
   </g>
   <g id="line2d_70">
    <path d="M 336.10125 473.802313 
L 350.05125 473.802313 
" clip-path="url(#pe9a218d46b)" style="fill: none; stroke: #000000; stroke-linecap: square"/>
   </g>
   <g id="line2d_71">
    <path d="M 336.10125 467.205029 
L 350.05125 467.205029 
" clip-path="url(#pe9a218d46b)" style="fill: none; stroke: #000000; stroke-linecap: square"/>
   </g>
   <g id="line2d_72">
    <g clip-path="url(#pe9a218d46b)">
     <use xlink:href="#m53dde78d25" x="343.07625" y="404.537215" style="fill-opacity: 0; stroke: #000000"/>
    </g>
   </g>
   <g id="line2d_73">
    <path d="M 384.92625 472.364589 
L 412.82625 472.364589 
L 412.82625 468.505506 
L 384.92625 468.505506 
L 384.92625 472.364589 
" clip-path="url(#pe9a218d46b)" style="fill: none; stroke: #000000; stroke-linecap: square"/>
   </g>
   <g id="line2d_74">
    <path d="M 398.87625 472.364589 
L 398.87625 472.933738 
" clip-path="url(#pe9a218d46b)" style="fill: none; stroke: #000000; stroke-linecap: square"/>
   </g>
   <g id="line2d_75">
    <path d="M 398.87625 468.505506 
L 398.87625 467.664905 
" clip-path="url(#pe9a218d46b)" style="fill: none; stroke: #000000; stroke-linecap: square"/>
   </g>
   <g id="line2d_76">
    <path d="M 391.90125 472.933738 
L 405.85125 472.933738 
" clip-path="url(#pe9a218d46b)" style="fill: none; stroke: #000000; stroke-linecap: square"/>
   </g>
   <g id="line2d_77">
    <path d="M 391.90125 467.664905 
L 405.85125 467.664905 
" clip-path="url(#pe9a218d46b)" style="fill: none; stroke: #000000; stroke-linecap: square"/>
   </g>
   <g id="line2d_78">
    <g clip-path="url(#pe9a218d46b)">
     <use xlink:href="#m53dde78d25" x="398.87625" y="413.619082" style="fill-opacity: 0; stroke: #000000"/>
    </g>
   </g>
   <g id="line2d_79">
    <path d="M 440.72625 472.556353 
L 468.62625 472.556353 
L 468.62625 469.179932 
L 440.72625 469.179932 
L 440.72625 472.556353 
" clip-path="url(#pe9a218d46b)" style="fill: none; stroke: #000000; stroke-linecap: square"/>
   </g>
   <g id="line2d_80">
    <path d="M 454.67625 472.556353 
L 454.67625 473.60184 
" clip-path="url(#pe9a218d46b)" style="fill: none; stroke: #000000; stroke-linecap: square"/>
   </g>
   <g id="line2d_81">
    <path d="M 454.67625 469.179932 
L 454.67625 468.238289 
" clip-path="url(#pe9a218d46b)" style="fill: none; stroke: #000000; stroke-linecap: square"/>
   </g>
   <g id="line2d_82">
    <path d="M 447.70125 473.60184 
L 461.65125 473.60184 
" clip-path="url(#pe9a218d46b)" style="fill: none; stroke: #000000; stroke-linecap: square"/>
   </g>
   <g id="line2d_83">
    <path d="M 447.70125 468.238289 
L 461.65125 468.238289 
" clip-path="url(#pe9a218d46b)" style="fill: none; stroke: #000000; stroke-linecap: square"/>
   </g>
   <g id="line2d_84">
    <g clip-path="url(#pe9a218d46b)">
     <use xlink:href="#m53dde78d25" x="454.67625" y="417.775742" style="fill-opacity: 0; stroke: #000000"/>
    </g>
   </g>
   <g id="line2d_85">
    <path d="M 496.52625 474.229443 
L 524.42625 474.229443 
L 524.42625 472.044823 
L 496.52625 472.044823 
L 496.52625 474.229443 
" clip-path="url(#pe9a218d46b)" style="fill: none; stroke: #000000; stroke-linecap: square"/>
   </g>
   <g id="line2d_86">
    <path d="M 510.47625 474.229443 
L 510.47625 474.801038 
" clip-path="url(#pe9a218d46b)" style="fill: none; stroke: #000000; stroke-linecap: square"/>
   </g>
   <g id="line2d_87">
    <path d="M 510.47625 472.044823 
L 510.47625 471.162588 
" clip-path="url(#pe9a218d46b)" style="fill: none; stroke: #000000; stroke-linecap: square"/>
   </g>
   <g id="line2d_88">
    <path d="M 503.50125 474.801038 
L 517.45125 474.801038 
" clip-path="url(#pe9a218d46b)" style="fill: none; stroke: #000000; stroke-linecap: square"/>
   </g>
   <g id="line2d_89">
    <path d="M 503.50125 471.162588 
L 517.45125 471.162588 
" clip-path="url(#pe9a218d46b)" style="fill: none; stroke: #000000; stroke-linecap: square"/>
   </g>
   <g id="line2d_90">
    <g clip-path="url(#pe9a218d46b)">
     <use xlink:href="#m53dde78d25" x="510.47625" y="444.172989" style="fill-opacity: 0; stroke: #000000"/>
    </g>
   </g>
   <g id="line2d_91">
    <path d="M 552.32625 474.123689 
L 580.22625 474.123689 
L 580.22625 473.19505 
L 552.32625 473.19505 
L 552.32625 474.123689 
" clip-path="url(#pe9a218d46b)" style="fill: none; stroke: #000000; stroke-linecap: square"/>
   </g>
   <g id="line2d_92">
    <path d="M 566.27625 474.123689 
L 566.27625 474.291297 
" clip-path="url(#pe9a218d46b)" style="fill: none; stroke: #000000; stroke-linecap: square"/>
   </g>
   <g id="line2d_93">
    <path d="M 566.27625 473.19505 
L 566.27625 472.79494 
" clip-path="url(#pe9a218d46b)" style="fill: none; stroke: #000000; stroke-linecap: square"/>
   </g>
   <g id="line2d_94">
    <path d="M 559.30125 474.291297 
L 573.25125 474.291297 
" clip-path="url(#pe9a218d46b)" style="fill: none; stroke: #000000; stroke-linecap: square"/>
   </g>
   <g id="line2d_95">
    <path d="M 559.30125 472.79494 
L 573.25125 472.79494 
" clip-path="url(#pe9a218d46b)" style="fill: none; stroke: #000000; stroke-linecap: square"/>
   </g>
   <g id="line2d_96">
    <g clip-path="url(#pe9a218d46b)">
     <use xlink:href="#m53dde78d25" x="566.27625" y="448.214889" style="fill-opacity: 0; stroke: #000000"/>
    </g>
   </g>
   <g id="line2d_97">
    <path d="M 50.12625 445.931971 
L 78.02625 445.931971 
" clip-path="url(#pe9a218d46b)" style="fill: none; stroke: #348abd; stroke-linecap: square"/>
   </g>
   <g id="line2d_98">
    <path d="M 105.92625 460.820684 
L 133.82625 460.820684 
" clip-path="url(#pe9a218d46b)" style="fill: none; stroke: #348abd; stroke-linecap: square"/>
   </g>
   <g id="line2d_99">
    <path d="M 161.72625 463.429214 
L 189.62625 463.429214 
" clip-path="url(#pe9a218d46b)" style="fill: none; stroke: #348abd; stroke-linecap: square"/>
   </g>
   <g id="line2d_100">
    <path d="M 217.52625 468.176078 
L 245.42625 468.176078 
" clip-path="url(#pe9a218d46b)" style="fill: none; stroke: #348abd; stroke-linecap: square"/>
   </g>
   <g id="line2d_101">
    <path d="M 273.32625 469.376408 
L 301.22625 469.376408 
" clip-path="url(#pe9a218d46b)" style="fill: none; stroke: #348abd; stroke-linecap: square"/>
   </g>
   <g id="line2d_102">
    <path d="M 329.12625 470.242418 
L 357.02625 470.242418 
" clip-path="url(#pe9a218d46b)" style="fill: none; stroke: #348abd; stroke-linecap: square"/>
   </g>
   <g id="line2d_103">
    <path d="M 384.92625 471.297151 
L 412.82625 471.297151 
" clip-path="url(#pe9a218d46b)" style="fill: none; stroke: #348abd; stroke-linecap: square"/>
   </g>
   <g id="line2d_104">
    <path d="M 440.72625 471.413164 
L 468.62625 471.413164 
" clip-path="url(#pe9a218d46b)" style="fill: none; stroke: #348abd; stroke-linecap: square"/>
   </g>
   <g id="line2d_105">
    <path d="M 496.52625 473.741235 
L 524.42625 473.741235 
" clip-path="url(#pe9a218d46b)" style="fill: none; stroke: #348abd; stroke-linecap: square"/>
   </g>
   <g id="line2d_106">
    <path d="M 552.32625 473.845855 
L 580.22625 473.845855 
" clip-path="url(#pe9a218d46b)" style="fill: none; stroke: #348abd; stroke-linecap: square"/>
   </g>
   <g id="patch_3">
    <path d="M 36.17625 494.961038 
L 36.17625 51.441037 
" style="fill: none; stroke: #ffffff; stroke-linejoin: miter; stroke-linecap: square"/>
   </g>
   <g id="patch_4">
    <path d="M 594.17625 494.961038 
L 594.17625 51.441037 
" style="fill: none; stroke: #ffffff; stroke-linejoin: miter; stroke-linecap: square"/>
   </g>
   <g id="patch_5">
    <path d="M 36.17625 494.961038 
L 594.17625 494.961038 
" style="fill: none; stroke: #ffffff; stroke-linejoin: miter; stroke-linecap: square"/>
   </g>
   <g id="patch_6">
    <path d="M 36.17625 51.441037 
L 594.17625 51.441037 
" style="fill: none; stroke: #ffffff; stroke-linejoin: miter; stroke-linecap: square"/>
   </g>
   <g id="text_22">
    <!-- Representação usando barras da mediana entre 2009 e 2020 para os 10 municípios  -->
    <g transform="translate(9.553125 18.71775) scale(0.144 -0.144)">
     <defs>
      <path id="DejaVuSans-70" d="M 1159 525 
L 1159 -1331 
L 581 -1331 
L 581 3500 
L 1159 3500 
L 1159 2969 
Q 1341 3281 1617 3432 
Q 1894 3584 2278 3584 
Q 2916 3584 3314 3078 
Q 3713 2572 3713 1747 
Q 3713 922 3314 415 
Q 2916 -91 2278 -91 
Q 1894 -91 1617 61 
Q 1341 213 1159 525 
z
M 3116 1747 
Q 3116 2381 2855 2742 
Q 2594 3103 2138 3103 
Q 1681 3103 1420 2742 
Q 1159 2381 1159 1747 
Q 1159 1113 1420 752 
Q 1681 391 2138 391 
Q 2594 391 2855 752 
Q 3116 1113 3116 1747 
z
" transform="scale(0.015625)"/>
      <path id="DejaVuSans-e7" d="M 3122 3366 
L 3122 2828 
Q 2878 2963 2633 3030 
Q 2388 3097 2138 3097 
Q 1578 3097 1268 2742 
Q 959 2388 959 1747 
Q 959 1106 1268 751 
Q 1578 397 2138 397 
Q 2388 397 2633 464 
Q 2878 531 3122 666 
L 3122 134 
Q 2881 22 2623 -34 
Q 2366 -91 2075 -91 
Q 1284 -91 818 406 
Q 353 903 353 1747 
Q 353 2603 823 3093 
Q 1294 3584 2113 3584 
Q 2378 3584 2631 3529 
Q 2884 3475 3122 3366 
z
M 2311 0 
Q 2482 -194 2566 -358 
Q 2651 -522 2651 -672 
Q 2651 -950 2463 -1092 
Q 2276 -1234 1907 -1234 
Q 1764 -1234 1628 -1215 
Q 1492 -1197 1357 -1159 
L 1357 -750 
Q 1464 -803 1579 -826 
Q 1695 -850 1842 -850 
Q 2026 -850 2120 -775 
Q 2214 -700 2214 -556 
Q 2214 -463 2146 -327 
Q 2079 -191 1939 0 
L 2311 0 
z
" transform="scale(0.015625)"/>
      <path id="DejaVuSans-39" d="M 703 97 
L 703 672 
Q 941 559 1184 500 
Q 1428 441 1663 441 
Q 2288 441 2617 861 
Q 2947 1281 2994 2138 
Q 2813 1869 2534 1725 
Q 2256 1581 1919 1581 
Q 1219 1581 811 2004 
Q 403 2428 403 3163 
Q 403 3881 828 4315 
Q 1253 4750 1959 4750 
Q 2769 4750 3195 4129 
Q 3622 3509 3622 2328 
Q 3622 1225 3098 567 
Q 2575 -91 1691 -91 
Q 1453 -91 1209 -44 
Q 966 3 703 97 
z
M 1959 2075 
Q 2384 2075 2632 2365 
Q 2881 2656 2881 3163 
Q 2881 3666 2632 3958 
Q 2384 4250 1959 4250 
Q 1534 4250 1286 3958 
Q 1038 3666 1038 3163 
Q 1038 2656 1286 2365 
Q 1534 2075 1959 2075 
z
" transform="scale(0.015625)"/>
      <path id="DejaVuSans-ed" d="M 1322 5119 
L 1944 5119 
L 926 3944 
L 447 3944 
L 1322 5119 
z
M 603 3500 
L 1178 3500 
L 1178 0 
L 603 0 
L 603 3500 
z
M 891 3584 
L 891 3584 
z
" transform="scale(0.015625)"/>
     </defs>
     <use xlink:href="#DejaVuSans-52"/>
     <use xlink:href="#DejaVuSans-65" x="64.982422"/>
     <use xlink:href="#DejaVuSans-70" x="126.505859"/>
     <use xlink:href="#DejaVuSans-72" x="189.982422"/>
     <use xlink:href="#DejaVuSans-65" x="228.845703"/>
     <use xlink:href="#DejaVuSans-73" x="290.369141"/>
     <use xlink:href="#DejaVuSans-65" x="342.46875"/>
     <use xlink:href="#DejaVuSans-6e" x="403.992188"/>
     <use xlink:href="#DejaVuSans-74" x="467.371094"/>
     <use xlink:href="#DejaVuSans-61" x="506.580078"/>
     <use xlink:href="#DejaVuSans-e7" x="567.859375"/>
     <use xlink:href="#DejaVuSans-e3" x="622.839844"/>
     <use xlink:href="#DejaVuSans-6f" x="684.119141"/>
     <use xlink:href="#DejaVuSans-20" x="745.300781"/>
     <use xlink:href="#DejaVuSans-75" x="777.087891"/>
     <use xlink:href="#DejaVuSans-73" x="840.466797"/>
     <use xlink:href="#DejaVuSans-61" x="892.566406"/>
     <use xlink:href="#DejaVuSans-6e" x="953.845703"/>
     <use xlink:href="#DejaVuSans-64" x="1017.224609"/>
     <use xlink:href="#DejaVuSans-6f" x="1080.701172"/>
     <use xlink:href="#DejaVuSans-20" x="1141.882812"/>
     <use xlink:href="#DejaVuSans-62" x="1173.669922"/>
     <use xlink:href="#DejaVuSans-61" x="1237.146484"/>
     <use xlink:href="#DejaVuSans-72" x="1298.425781"/>
     <use xlink:href="#DejaVuSans-72" x="1337.789062"/>
     <use xlink:href="#DejaVuSans-61" x="1378.902344"/>
     <use xlink:href="#DejaVuSans-73" x="1440.181641"/>
     <use xlink:href="#DejaVuSans-20" x="1492.28125"/>
     <use xlink:href="#DejaVuSans-64" x="1524.068359"/>
     <use xlink:href="#DejaVuSans-61" x="1587.544922"/>
     <use xlink:href="#DejaVuSans-20" x="1648.824219"/>
     <use xlink:href="#DejaVuSans-6d" x="1680.611328"/>
     <use xlink:href="#DejaVuSans-65" x="1778.023438"/>
     <use xlink:href="#DejaVuSans-64" x="1839.546875"/>
     <use xlink:href="#DejaVuSans-69" x="1903.023438"/>
     <use xlink:href="#DejaVuSans-61" x="1930.806641"/>
     <use xlink:href="#DejaVuSans-6e" x="1992.085938"/>
     <use xlink:href="#DejaVuSans-61" x="2055.464844"/>
     <use xlink:href="#DejaVuSans-20" x="2116.744141"/>
     <use xlink:href="#DejaVuSans-65" x="2148.53125"/>
     <use xlink:href="#DejaVuSans-6e" x="2210.054688"/>
     <use xlink:href="#DejaVuSans-74" x="2273.433594"/>
     <use xlink:href="#DejaVuSans-72" x="2312.642578"/>
     <use xlink:href="#DejaVuSans-65" x="2351.505859"/>
     <use xlink:href="#DejaVuSans-20" x="2413.029297"/>
     <use xlink:href="#DejaVuSans-32" x="2444.816406"/>
     <use xlink:href="#DejaVuSans-30" x="2508.439453"/>
     <use xlink:href="#DejaVuSans-30" x="2572.0625"/>
     <use xlink:href="#DejaVuSans-39" x="2635.685547"/>
     <use xlink:href="#DejaVuSans-20" x="2699.308594"/>
     <use xlink:href="#DejaVuSans-65" x="2731.095703"/>
     <use xlink:href="#DejaVuSans-20" x="2792.619141"/>
     <use xlink:href="#DejaVuSans-32" x="2824.40625"/>
     <use xlink:href="#DejaVuSans-30" x="2888.029297"/>
     <use xlink:href="#DejaVuSans-32" x="2951.652344"/>
     <use xlink:href="#DejaVuSans-30" x="3015.275391"/>
     <use xlink:href="#DejaVuSans-20" x="3078.898438"/>
     <use xlink:href="#DejaVuSans-70" x="3110.685547"/>
     <use xlink:href="#DejaVuSans-61" x="3174.162109"/>
     <use xlink:href="#DejaVuSans-72" x="3235.441406"/>
     <use xlink:href="#DejaVuSans-61" x="3276.554688"/>
     <use xlink:href="#DejaVuSans-20" x="3337.833984"/>
     <use xlink:href="#DejaVuSans-6f" x="3369.621094"/>
     <use xlink:href="#DejaVuSans-73" x="3430.802734"/>
     <use xlink:href="#DejaVuSans-20" x="3482.902344"/>
     <use xlink:href="#DejaVuSans-31" x="3514.689453"/>
     <use xlink:href="#DejaVuSans-30" x="3578.3125"/>
     <use xlink:href="#DejaVuSans-20" x="3641.935547"/>
     <use xlink:href="#DejaVuSans-6d" x="3673.722656"/>
     <use xlink:href="#DejaVuSans-75" x="3771.134766"/>
     <use xlink:href="#DejaVuSans-6e" x="3834.513672"/>
     <use xlink:href="#DejaVuSans-69" x="3897.892578"/>
     <use xlink:href="#DejaVuSans-63" x="3925.675781"/>
     <use xlink:href="#DejaVuSans-ed" x="3980.65625"/>
     <use xlink:href="#DejaVuSans-70" x="4008.439453"/>
     <use xlink:href="#DejaVuSans-69" x="4071.916016"/>
     <use xlink:href="#DejaVuSans-6f" x="4099.699219"/>
     <use xlink:href="#DejaVuSans-73" x="4160.880859"/>
     <use xlink:href="#DejaVuSans-20" x="4212.980469"/>
    </g>
    <!-- com maiores proveitos totais no conjunto destes anos.  -->
    <g transform="translate(115.597875 34.8426) scale(0.144 -0.144)">
     <defs>
      <path id="DejaVuSans-6a" d="M 603 3500 
L 1178 3500 
L 1178 -63 
Q 1178 -731 923 -1031 
Q 669 -1331 103 -1331 
L -116 -1331 
L -116 -844 
L 38 -844 
Q 366 -844 484 -692 
Q 603 -541 603 -63 
L 603 3500 
z
M 603 4863 
L 1178 4863 
L 1178 4134 
L 603 4134 
L 603 4863 
z
" transform="scale(0.015625)"/>
      <path id="DejaVuSans-2e" d="M 684 794 
L 1344 794 
L 1344 0 
L 684 0 
L 684 794 
z
" transform="scale(0.015625)"/>
     </defs>
     <use xlink:href="#DejaVuSans-63"/>
     <use xlink:href="#DejaVuSans-6f" x="54.980469"/>
     <use xlink:href="#DejaVuSans-6d" x="116.162109"/>
     <use xlink:href="#DejaVuSans-20" x="213.574219"/>
     <use xlink:href="#DejaVuSans-6d" x="245.361328"/>
     <use xlink:href="#DejaVuSans-61" x="342.773438"/>
     <use xlink:href="#DejaVuSans-69" x="404.052734"/>
     <use xlink:href="#DejaVuSans-6f" x="431.835938"/>
     <use xlink:href="#DejaVuSans-72" x="493.017578"/>
     <use xlink:href="#DejaVuSans-65" x="531.880859"/>
     <use xlink:href="#DejaVuSans-73" x="593.404297"/>
     <use xlink:href="#DejaVuSans-20" x="645.503906"/>
     <use xlink:href="#DejaVuSans-70" x="677.291016"/>
     <use xlink:href="#DejaVuSans-72" x="740.767578"/>
     <use xlink:href="#DejaVuSans-6f" x="779.630859"/>
     <use xlink:href="#DejaVuSans-76" x="840.8125"/>
     <use xlink:href="#DejaVuSans-65" x="899.992188"/>
     <use xlink:href="#DejaVuSans-69" x="961.515625"/>
     <use xlink:href="#DejaVuSans-74" x="989.298828"/>
     <use xlink:href="#DejaVuSans-6f" x="1028.507812"/>
     <use xlink:href="#DejaVuSans-73" x="1089.689453"/>
     <use xlink:href="#DejaVuSans-20" x="1141.789062"/>
     <use xlink:href="#DejaVuSans-74" x="1173.576172"/>
     <use xlink:href="#DejaVuSans-6f" x="1212.785156"/>
     <use xlink:href="#DejaVuSans-74" x="1273.966797"/>
     <use xlink:href="#DejaVuSans-61" x="1313.175781"/>
     <use xlink:href="#DejaVuSans-69" x="1374.455078"/>
     <use xlink:href="#DejaVuSans-73" x="1402.238281"/>
     <use xlink:href="#DejaVuSans-20" x="1454.337891"/>
     <use xlink:href="#DejaVuSans-6e" x="1486.125"/>
     <use xlink:href="#DejaVuSans-6f" x="1549.503906"/>
     <use xlink:href="#DejaVuSans-20" x="1610.685547"/>
     <use xlink:href="#DejaVuSans-63" x="1642.472656"/>
     <use xlink:href="#DejaVuSans-6f" x="1697.453125"/>
     <use xlink:href="#DejaVuSans-6e" x="1758.634766"/>
     <use xlink:href="#DejaVuSans-6a" x="1822.013672"/>
     <use xlink:href="#DejaVuSans-75" x="1849.796875"/>
     <use xlink:href="#DejaVuSans-6e" x="1913.175781"/>
     <use xlink:href="#DejaVuSans-74" x="1976.554688"/>
     <use xlink:href="#DejaVuSans-6f" x="2015.763672"/>
     <use xlink:href="#DejaVuSans-20" x="2076.945312"/>
     <use xlink:href="#DejaVuSans-64" x="2108.732422"/>
     <use xlink:href="#DejaVuSans-65" x="2172.208984"/>
     <use xlink:href="#DejaVuSans-73" x="2233.732422"/>
     <use xlink:href="#DejaVuSans-74" x="2285.832031"/>
     <use xlink:href="#DejaVuSans-65" x="2325.041016"/>
     <use xlink:href="#DejaVuSans-73" x="2386.564453"/>
     <use xlink:href="#DejaVuSans-20" x="2438.664062"/>
     <use xlink:href="#DejaVuSans-61" x="2470.451172"/>
     <use xlink:href="#DejaVuSans-6e" x="2531.730469"/>
     <use xlink:href="#DejaVuSans-6f" x="2595.109375"/>
     <use xlink:href="#DejaVuSans-73" x="2656.291016"/>
     <use xlink:href="#DejaVuSans-2e" x="2708.390625"/>
     <use xlink:href="#DejaVuSans-20" x="2740.177734"/>
    </g>
   </g>
  </g>
 </g>
 <defs>
  <clipPath id="pe9a218d46b">
   <rect x="36.17625" y="51.441037" width="558" height="443.52"/>
  </clipPath>
 </defs>
</svg>
